<svg id="print" xmlns="http://www.w3.org/2000/svg" width="21" height="24" viewBox="0 0 21 24"><defs><style>.cls-1{fill:#0b0c0c;}.cls-2,.cls-3{fill:#fff;}.cls-3{opacity:0;}</style></defs><title>print</title><polygon class="cls-1" points="9 6 4 6 9 1 9 6"/><polygon class="cls-1" points="9 1 9 6 4 6 4 9 17 9 17 1 9 1"/><rect class="cls-1" x="1" y="9" width="19" height="8"/><rect class="cls-1" x="4" y="12" width="13" height="11"/><rect class="cls-2" x="5" y="15" width="11" height="7"/><rect class="cls-1" x="6" y="16" width="9" height="1"/><rect class="cls-1" x="6" y="18" width="9" height="1"/><rect class="cls-1" x="6" y="20" width="9" height="1"/><polygon class="cls-2" points="9 2 9 6 5 6 5 9 16 9 16 2 9 2"/><rect class="cls-3" width="21" height="24"/></svg>